<svg xmlns="http://www.w3.org/2000/svg" viewBox="0 0 512 512" role="img" aria-label="PI logo">
  <defs>
    <linearGradient id="piGradient" x1="0%" y1="0%" x2="100%" y2="100%">
      <stop offset="0%" stop-color="#2dd4bf" />
      <stop offset="50%" stop-color="#1fb1f3" />
      <stop offset="100%" stop-color="#2563eb" />
    </linearGradient>
  </defs>
  <rect width="512" height="512" rx="96" fill="#0b1224" />
  <path
    d="M392 136c8.8 0 16 7.2 16 16s-7.2 16-16 16h-33.7c-7.7 43.1-14.4 91.9-19.8 145.7-3.3 33.5-25 52.3-58.5 52.3-18.2 0-30.8-7.1-43.4-16.7l-.3-.2c-6.2-4.6-7.4-13.3-2.8-19.5 4.6-6.2 13.3-7.4 19.5-2.8l.3.2c9.9 7.4 18 11.7 27.5 11.7 11.9 0 20-6.3 21.6-22 5.3-55.6 12.1-106 20.4-148.7H196.4c-7.7 43.1-14.4 91.9-19.8 145.7-3.3 33.5-25 52.3-58.5 52.3-18.2 0-30.8-7.1-43.4-16.7l-.3-.2c-6.2-4.6-7.4-13.3-2.8-19.5 4.6-6.2 13.3-7.4 19.5-2.8l.3.2c9.9 7.4 18 11.7 27.5 11.7 11.9 0 20-6.3 21.6-22 5.3-55.6 12.1-106 20.4-148.7H104c-8.8 0-16-7.2-16-16s7.2-16 16-16z"
    fill="url(#piGradient)"
  />
</svg>
